<?xml version="1.0" encoding="UTF-8"?>
<svg id="_레이어_2" data-name="레이어 2" xmlns="http://www.w3.org/2000/svg" viewBox="0 0 134.56 139.48">
  <defs>
    <style>
      .cls-1 {
        fill: none;
        stroke: #231815;
        stroke-linecap: round;
        stroke-linejoin: round;
      }
    </style>
  </defs>
  <path class="cls-1" d="M125.55,44.55c.96-.94,1-1.03,1.81-1.41,3.51-1.68,3.06-10.85,2.29-14.21-.76-3.36-11.31-17.88-18.95-18.8-7.64-.92-7.67-8.78-7.67-8.78"/>
  <path class="cls-1" d="M17.33,88.07s2.44,16.96,33.01,21.55c30.56,4.58,48.29-8.86,61.43-19.25,13.14-10.39,9.17-27.05,8.71-29.95-.17-1.06,.04-2.71,.79-5.36"/>
  <path class="cls-1" d="M101,6.93s-1.57,2.7-8.15,3.2-8.47-1.94-8.47-1.94"/>
  <path class="cls-1" d="M89.44,11.76s-2.61,3.04-6.96,3.25"/>
  <path class="cls-1" d="M85.84,16.57s-.15,1.82-9.03,4.98"/>
  <path class="cls-1" d="M79.68,26.23s-4.56,5.81-6.62,10.12-18.12,10.06-18.12,10.06c0,0-16.87,5.87-23,10.31-6.12,4.44-9.87,7.81-11.94,11.87-2.06,4.06-1.56,7.12-3.44,10.56-1.17,2.14-8.88,6.74-14.55,9.91-1.06,.59-.45,2.21,.73,1.96,9.37-1.97,25.68-5.74,31.61-9.27,8.53-5.08,21.36-17.3,25.18-21.65"/>
  <path class="cls-1" d="M123.69,42.23c-.08-.01-3.97,1.39-5.35,5.86-1.66,5.38-.33,6.99-.25,7.05,.06,.05,14.99-.77,14.99-.77,0,0-9.24-12.12-9.39-12.14Z"/>
  <path class="cls-1" d="M107.94,35.54c-.81,2.66-.66,5.08,.1,5.34,.83,.29,2.61-2.3,3.17-4.24s.52-4.87-.33-5.14c-.76-.24-2.28,1.88-2.94,4.03Z"/>
  <polyline class="cls-1" points="70.9 110.01 74.24 125.13 76.76 127.9 83.92 130.64 88.91 131.58 94.08 134.03"/>
  <polyline class="cls-1" points="76.76 127.9 85.92 125.94 93.92 127.08 100.84 133.82"/>
  <polyline class="cls-1" points="63.09 105.4 62.34 121.55 63.55 124.84 64.39 125.66 68.57 128.49 72.04 138.13"/>
  <polyline class="cls-1" points="64.5 136.48 64.35 130.41 61.86 125.54 62.77 122.73 66.6 125.15 71.43 127.36 76.11 135.03"/>
</svg>


