<?xml version="1.0" encoding="UTF-8"?>
<svg id="_레이어_5" data-name="레이어 5" xmlns="http://www.w3.org/2000/svg" viewBox="0 0 57.53 75.97">
  <defs>
    <style>
      .cls-1 {
        fill: none;
        stroke: #231815;
        stroke-linecap: round;
        stroke-linejoin: round;
      }
    </style>
  </defs>
  <path class="cls-1" d="M20.13,66.32c3.63-3.26,8.47-7.37,12.78-9.66s9.38-3.51,14.13-2.37,8.99,4.99,9.65,9.83c-7.38,2.15-15,4.32-22.64,3.51-4.21-.45-11.84-.82-12.02-.86-.31-.06-2.21-.26-1.9-.45,3.98-2.5,8.14-4.7,12.44-6.59,2.29-1,4.67-1.93,7.16-2.11s5.16,.49,6.9,2.28"/>
  <path class="cls-1" d="M8.39,71.5c5-3.93,10.05-8.15,14.02-13.15,.56-.72,1.14-1.5,1.54-2.31,1.08-2.09,1.44-4.42,1.73-6.84,.64-5.96,.33-8.88-.25-14.86,0,0,.92-3.15,.92-3.15,.23,0,1.3,7.91,1.56,12,.19,5.19,.58,10.88-2.1,15.61-3.84,6.26-9.16,11.31-14.53,16.26,0,0-2.9-3.55-2.9-3.55h0Z"/>
  <path class="cls-1" d="M23.51,18.96c-1.15-4.04-4.56-7.36-8.63-8.39s-8.65,.26-11.58,3.26c-1.38,1.41-2.43,3.26-2.49,5.23-.11,3.83,3.59,6.9,7.37,7.48s9.32-1.97,11.19-2c-1,.69-8.78,3.63-9.79,8s2.38,9.54,6.87,9.43c1.43-.03,2.81-.55,4.03-1.3,4.24-2.59,6.42-8.13,5.08-12.91,.76,3.33,1.61,6.78,3.8,9.4s6.15,4.09,9.11,2.4c2.7-1.54,3.62-5.19,2.83-8.2-1.14-4.35-5.51-7.62-10-7.49,3.97-.4,8.17-1.7,10.47-4.96s1.47-8.77-2.32-10.03c-3.33-1.11-6.76,1.43-8.89,4.21,2.1-2.9,1.67-7.28-.81-9.87S23.09-.05,19.82,1.43s-5.48,5.4-5.73,8.97"/>
  <path class="cls-1" d="M24.93,21.62c-.26-.1-.72-.35-1.08-.39s-.82,.12-1.06,.38c-.54,.58-.62,1.58-.19,2.25s1.52,.84,2.03,.23c.2-.39,1.09,2.67,2.39,2.36s1.93-2.14,1.09-3.18c-.25-.24,1.28-.18,1.66-.69,.51-.67,.62-1.71,.05-2.33s-2.25,.4-2.48,1.21c-.06,.29-.04-2.52-.88-2.72s-1.67,.75-1.81,1.59c-.05,.32,.36,1.4,.28,1.28Z"/>
</svg>