<?xml version="1.0" encoding="UTF-8"?>
<svg id="_레이어_3" data-name="레이어 3" xmlns="http://www.w3.org/2000/svg" viewBox="0 0 39.32 85.82">
  <defs>
    <style>
      .cls-1 {
        stroke-miterlimit: 10;
      }

      .cls-1, .cls-2 {
        fill: none;
        stroke: #231815;
      }

      .cls-2 {
        stroke-linecap: round;
        stroke-linejoin: round;
      }
    </style>
  </defs>
  <path class="cls-2" d="M19.71,24.83c-.61-1.22-1.38-4.51-1.31-5.88,.16-3.17,1.46-6.28,3.32-8.85s4.95-4.47,8.11-4.11c2.59,.29,4.93,2.16,5.79,4.62,.09,.26,.16,.54,.1,.8-.07,.3-.31,.53-.56,.7-1.01,.69-2.32,.7-3.53,.87s-2.56,.65-3,1.8c-.42,1.08,.15,2.27,.18,3.43,.04,1.74-1.19,3.3-2.69,4.17s-3.6,1.59-4.61,1.98c-.48,.18-.78,.27-1.79,.47Z"/>
  <path class="cls-2" d="M21.5,10.21c-2.21-.54-4.58,.09-6.5,1.29s-3.48,2.92-4.88,4.7c-.56,.71-.88,1.25-1.12,2.11s-.21,1.86,.41,2.32c.56,.41,1.52,.41,2.89-.8,1.19,2.16,5.06,5.69,7.42,5"/>
  <path class="cls-2" d="M10.41,15.12c-4.42,0-8.63,3.33-9.63,7.64-.09,.37-.14,.78,.05,1.1,.2,.33,.6,.46,.97,.56,1.36,.38,2.77,.62,4.18,.72,1.2,.08,2.43,.07,3.58,.42,.9,.27,3.75,1.56,4.66,1.79l5.61-2.31"/>
  <path class="cls-2" d="M11.97,8.52c-.77-4.1,4.27-7.27,7.93-7.61,2.34-.22,3.38,.41,3.97,.77,1.5,.91,3.6,3.01,3.33,4.2"/>
  <path class="cls-2" d="M11.79,7.23c-2.71-.41-5.42,.62-7.07,2.8s-2,5.28-.87,7.77"/>
  <path class="cls-2" d="M10.52,15.46c-.95-.26-1.88-.79-2.37-1.65s-.63-1.96,.14-2.59,2.72,.23,3.07-.12c-.03-.42-.3-1,.17-1.82,.36-.63,.77-1.03,2.08-1.19,.78-.09,1.7,.2,2.25,.39,.07-1.11,.35-2.2,1.73-2.3,1.61-.11,1.82,1.68,2.2,1.74,.18,.07,.65-.5,1.11-.58,.29-.05,1.12,.17,1.41,.56,.32,.42-.03,1.48-.33,1.78"/>
  <path class="cls-2" d="M32.48,56.36c.38-1-.43-2.04-1.22-2.75-3.89-3.53-9.16-5.68-14.39-5.27s-10.31,3.58-12.47,8.37c3.04,2.82,6.28,5.75,10.32,6.65,5.75,1.27,11.45-1.86,16.51-4.88,.42-.25,.88-.57,.93-1.05,.05-.47-.32-.86-.67-1.17-4.93-4.33-12.87-4.74-18.22-.95"/>
  <path class="cls-1" d="M23.7,27.18c1.88-.93,3.31-2.39,3.47-5.16l-12.95,5.33c1.25,1.1,4.78,1.19,5.83,.96,.25-.05,.32-.05,.72-.11,.12,.24,.3,.49,.5,.75,5.39,7.16,9.6,15.19,11.22,24.04,1.63,8.84-.1,17.85-1.15,26.65-.28,1.79,1.33,1.53,3.13,1.67,1.73,.15,2.94,.8,3.09-.92,.4-4.69,.66-9.32,.76-14.02,.89-14.71-5.2-28.23-14.63-39.2Z"/>
</svg>