<?xml version="1.0" encoding="UTF-8"?>
<svg id="_레이어_4" data-name="레이어 4" xmlns="http://www.w3.org/2000/svg" viewBox="0 0 616.79 413.31">
  <defs>
    <style>
      .cls-1 {
        fill: none;
        stroke: #231815;
        stroke-miterlimit: 10;
      }
    </style>
  </defs>
  <path class="cls-1" d="M614.84,141.48c-.32-.04-47.86-1.74-72.09-1.79-8.1-.07-16.39,.55-24.46,1.26-18.13,1.6-36.15,3.86-54.15,6.18-10.84,1.2-30.97,3.48-41.98,4.69l-.29,.03-.36,.09-49.56,12.32c-5.04,.51-62.24,6.36-62.24,6.36-4.3,.42-11.29,1.14-15.48,1.46-7.5,.24-15.13,.21-22.77,.11,12.6-8.58,31.51-24.4,38.82-30.18,3.11-2.49,7.15-5.6,8.31-7.07,1.05-1.34,1.76-2.06-.63-4.72-2.24-2.49-2.6-2.41-5.09-.75-2.58,1.73-4.25,3.34-7.13,5.17-2.5,1.58-37.71,24.97-47.53,29.16-3.09,1.31-14.56,5.55-17.98,6.29-14.61,3.29-31,3.32-36.81,5.1-4.63,1.42-8.75,3.9-12.57,7.01-5.97,5.19-10.69,10.98-16.38,16-5.06,4.63-15.87,11.44-15.87,11.44,0,0-.07,.01-.07,.01-.25,.08-16.83,4.68-18.64,5.16,2.64-10.96,10.3-26.4,16.17-33.19,7.88-9.04,16.55-17.37,25.62-26.3,3.47-3.36,6.87-7.07,9.87-10.95,1.47-1.93,2.81-4.28,3.87-6.11,6.34-11.25,7.31-45.29,8.68-51.17,1.69-7.22,11.49-28.15,16.35-32.17,2.73-2.25,12.93-10.56,18.11-15.28,7.61-6.95,23.21-33.36,24.25-34.75,1.58-2.13,1.47-2.24,.5-3.19-1.09-1.06-2.03-1.03-3.18,.08-1.28,1.23-21.31,27.71-26.05,32.33-3.23,3.15-12.38,9.11-18.44,13.84-4.95,3.86-19.99,30.97-20.41,37.92-.27,4.48-6.13,35.89-10.39,48.14-.56,1.61-1.8,2.68-2.63,3.74-2.65,2.96-5.43,5.66-8.51,8.27-9.78,8.38-25.03,24.1-28.39,28.13-9.85,11.79-21.56,44.98-22.71,45.97-.34,.29-14.73,8.77-18.07,12.01-1.42,1.35-3.28,3.59-4.62,5.05-1.3,1.38-2.96,3.73-4.12,5.25-1.84,2.29-3.59,5.22-5.05,7.76-.62,1.23-1.91,4-2.5,5.31-.69,1.72-1.29,3.62-1.93,5.37-.31,1.17-1.14,4.07-1.43,5.3-.23,1.09-.81,4.1-1.02,5.14-.14,1.1-.6,3.79-.72,4.94-.33,2.83-.66,6.37-.89,9.21-.94,10.87-.96,22.94-6.69,31.08l-.46,.71s-.23,.36-.23,.36c-.53,.65-1.5,1.92-2,2.58-7.89,9.35-19.19,17.09-29.92,23.64-1.11,.67-6.76,4-7.81,4.77L.66,370.41c-.05-.03,33.47,38.31,36.89,42.2,.15,.17,.41,.19,.58,.03,4.33-3.92,53.17-48.27,61.62-58.36,18.56-22.55,20.56-39.75,19.26-67.83-.1-3.45-.14-7.28,.02-10.73,.04-.59,.22-2.48,.25-3.07,.11-.66,.32-2.15,.41-2.81,.12-.49,.48-2.05,.58-2.55,.28-.76,.51-1.56,.76-2.34,.34-.7,.67-1.46,.96-2.19,5.77-10.4,12.57-18.05,23.72-21.71,8.93-3.21,18.83-3.91,26.75-9.55,5.28-3.76,9.5-8.8,13.61-13.75l14.29-17.23c1.97-2.37,4.08-4.63,6.34-6.72,2.64-2.44,5.87-5.11,9.48-5.58,3.83-.5,20.65-1.58,32.78-5.55,9.95,.33,19.87,.57,29.85,.73,5.08,0,10.96,.26,16.17-.07,4.45-.33,11.47-1.09,15.86-1.51,18.78-1.99,44.9-4.55,63.41-6.86-.72,.15,48.03-12.44,49.3-12.87,10.98-1.46,31.15-4.14,41.86-5.56,21.83-3.23,43.73-6.52,65.64-8.7,22.75-1.58,83.7-2.16,84.25-2.42,.56-.26,.79-.47,.8-1.71,.01-1.21-.94-2.18-1.24-2.21Z"/>
</svg>