<svg id="Layer_1" data-name="Layer 1" xmlns="http://www.w3.org/2000/svg" viewBox="0 0 321.37 401.11">
<defs>
<style>.cls-1{fill:none;stroke:#ffffff;stroke-miterlimit:10;}
</style>
</defs>
<path class="cls-1" d="M316.54,381.29h0a133.79,133.79,0,0,1-19.1-18.69,169.63,169.63,0,0,1-15.7-22.27c-9.41-15.77-16.84-33-23.13-50.79-1.58-4.44-3.09-8.93-4.54-13.44s-2.79-9-4.07-13.52c-2.56-9.1-4.83-18.38-7.22-27.76s-5-18.85-8-28.22A241.32,241.32,0,0,0,223.85,179q-3.14-6.72-6.7-13.21t-7.45-12.75L205.86,147c-.63-1-1.26-2-1.88-3-.5-1.47-1-2.95-1.39-4.45a98.67,98.67,0,0,1-3.67-32.35c.12-2.73.38-5.48.62-8.3s.45-5.66.58-8.56.18-5.83.08-8.78a61.82,61.82,0,0,0-1-8.81,80.79,80.79,0,0,0-5.31-16.58c-2.28-5.28-4.89-10.36-7.43-15.43a1.42,1.42,0,0,0-1.87-.63,1.4,1.4,0,0,0-.64,1.87c2.49,5.09,4.9,10.2,6.9,15.43a71,71,0,0,1,4.25,16,47.05,47.05,0,0,1,.35,8.13,69.69,69.69,0,0,1-1,8.2c-.47,2.74-1,5.5-1.53,8.31s-.94,5.69-1.18,8.62a98.79,98.79,0,0,0-.06,16.94,143.66,143.66,0,0,0-14-19.31A112.79,112.79,0,0,0,167,93.77l-2.9-2.36c-1-.79-2-1.57-3-2.28l-5.8-4.3a262.6,262.6,0,0,1-22.13-18A104.27,104.27,0,0,1,123.5,56.7a48.72,48.72,0,0,1-4-5.6l-.94-1.48-.86-1.5c-.6-1-1.08-2-1.62-3.06-1-2.08-1.91-4.31-3.06-6.58-.55-1.14-1.21-2.23-1.87-3.31s-1.4-2.11-2.15-3.1a114,114,0,0,0-9.73-11c-6.79-6.91-13.87-13.44-21-19.95a1.06,1.06,0,0,0-1.47,1.54h0c6.8,6.79,13.57,13.62,20,20.72a111,111,0,0,1,8.93,11c.67,1,1.25,1.94,1.85,2.92s1.09,2,1.54,3c.94,2.07,1.75,4.34,2.74,6.64.52,1.13,1,2.29,1.61,3.38l.86,1.67.93,1.61a47.49,47.49,0,0,0,3.26,5.08c-1-.27-2-.52-2.87-.74-2.69-.65-5.25-1.22-7.85-1.75a69.86,69.86,0,0,0-8.63-1.33,90.47,90.47,0,0,0-17.18,0,62.46,62.46,0,0,0-8.6,1.43,39.39,39.39,0,0,0-4.27,1.29c-.71.26-1.42.55-2.12.87-.34.17-.73.34-1,.5l-.91.49c-2.45,1.27-4.85,2.56-7.26,3.65a37.93,37.93,0,0,1-7.42,2.51,91.11,91.11,0,0,1-16.08,1.63,49.9,49.9,0,0,1-8-.21,62.06,62.06,0,0,1-7.95-1.5C13,64.28,7.61,62.89,2.22,61.68a.91.91,0,0,0-.42,1.78c2.65.69,5.31,1.39,7.94,2.16L17.67,68a64.26,64.26,0,0,0,8.19,1.93,57.49,57.49,0,0,0,8.46.65,106.3,106.3,0,0,0,16.82-.8,43.91,43.91,0,0,0,8.4-2.16c2.7-1,5.28-2,7.83-3.07l1.82-.72c.57-.2,1.15-.39,1.75-.56a34.24,34.24,0,0,1,3.7-.82,55.41,55.41,0,0,1,7.77-.71,92.79,92.79,0,0,1,15.8,1,72.37,72.37,0,0,1,7.62,1.55,57.77,57.77,0,0,0,8.32,1.6c1.35.18,2.66.37,3.89.57s2.39.48,3.55.8A45.4,45.4,0,0,1,128.22,70l1,1c7,6.9,14.4,13.18,21.9,19.28l5.62,4.53c.93.77,1.8,1.45,2.65,2.26L162,99.4a103.72,103.72,0,0,1,9.32,10.24A156.07,156.07,0,0,1,186,133.45l6.69,12.8c1.13,2.14,2.31,4.29,3.48,6.43l3.57,6.32c2.35,4.07,4.55,8.22,6.64,12.42s4.05,8.45,5.87,12.76a226.55,226.55,0,0,1,8.53,24c-.6-.57-1.2-1.1-1.81-1.62a97.74,97.74,0,0,0-8.06-6c-2.7-1.85-5.41-3.6-8.12-5.32-5.4-3.44-10.82-6.74-16-10.18a85.54,85.54,0,0,1-7.31-5.31c-.54-.45-1.05-.91-1.49-1.35l-1.6-1.69c-1.16-1.2-2.35-2.36-3.58-3.5a66.15,66.15,0,0,0-16.56-11.24,68.64,68.64,0,0,0-19-5.46c-3.19-.52-6.38-.81-9.44-1.3s-6.06-1.13-8.21-2.88l0,0A1.19,1.19,0,0,0,118,154a13.54,13.54,0,0,0,4.38,2.88,34.73,34.73,0,0,0,4.74,1.59c3.15.83,6.25,1.5,9.29,2.25a65.21,65.21,0,0,1,17.06,6.57,59.17,59.17,0,0,1,14,11.22c1,1.11,2,2.24,3,3.41l.72.88.35.44.48.56c.64.73,1.28,1.37,1.92,2a91.73,91.73,0,0,0,7.72,6.38c5.19,3.91,10.41,7.54,15.52,11.25,2.55,1.84,5.07,3.7,7.5,5.59s4.8,3.83,6.87,5.79a27.53,27.53,0,0,1,2.68,2.88,6.78,6.78,0,0,1,.73,1.13l.59,1.62c1.15,3.15,2.46,6.24,3.87,9.28A157.7,157.7,0,0,0,229.21,247v0l.31.44a7.06,7.06,0,0,0,.94,1c1.28,6,2.59,12,4.05,18.1,1.13,4.75,2.37,9.54,3.7,14.26s2.69,9.4,4.15,14.08c5.85,18.7,12.92,37.32,22.63,55a190.24,190.24,0,0,0,16.69,25.43A155.31,155.31,0,0,0,303,397.67l.28.23a10.61,10.61,0,0,0,13.22-16.61Z"/></svg>