<svg width="448" height="448" viewBox="0 0 448 448" fill="none" xmlns="http://www.w3.org/2000/svg">
<path d="M257.5 299.3C253.7 298.1 250.9 297.3 245.5 296.3C242.2 295.8 227.7 293.7 226.7 293.5C224 292.8 214.6 290.4 208 288.7C205.8 288.1 204.1 287.6 202.5 286.9C200.2 285.9 193.9 282.4 190.9 280.6C188.1 278.8 182.1 275 179.9 273.4C178.5 272.3 177.1 271 175.6 269.6C173.1 267.1 165.8 259 162.7 255.3C161.7 254.1 159.9 251.4 159 250.1C158.2 248.8 156.8 246.3 156 244.8C155.4 243.6 154 240.3 153.5 238.9C152.6 236.1 150.9 229.7 150.3 226.6C150 225 149.6 221.1 149.5 220.1C149.4 218.5 149.5 215.3 149.5 213.7C149.6 212.1 149.9 208.8 150.1 207.2C150.3 205.6 150.9 202.4 151.3 200.8C151.5 199.9 152.6 196.3 153.1 194.8C153.6 193.3 154.8 190.4 155.4 188.9C156 187.4 157.4 184.5 158.2 183.1C159.3 181.1 160.3 179.4 161.6 177.3C163.6 174.4 167.8 168.9 169.8 166.4C170.6 165.4 172.6 163 174.2 161.5C175.9 159.9 180.4 156.4 181.6 155.7C183 154.8 185.6 153.6 186.7 153C189.7 151.7 195.9 149 199.1 147.8C201.4 147 203.2 146.5 205.5 145.9C207.1 145.5 210.2 144.8 211.8 144.6C213.4 144.3 216.5 143.9 218.1 143.8C219.7 143.7 223.4 143.5 224.4 143.5C226 143.5 229.3 143.7 230.9 143.8C232.5 144 235.8 144.4 237.4 144.7C239 145 242.1 145.8 243.6 146.2C244.5 146.5 248.2 147.8 249.7 148.5C252.6 149.8 258.4 152.9 260.9 154.5C262.2 155.3 265.1 157.5 266.1 158.3C267.5 159.4 269.5 161.4 270.6 162.5C271.7 163.7 273.8 166.1 274.8 167.3C275.8 168.6 277.7 171.3 278.7 172.6C280.5 175.3 283.8 180.1 285.6 183.1C286.7 184.9 287.6 186.6 288.3 188.2C289.4 190.7 291.7 197.4 292.7 200.6C293.8 204 295.7 210.9 296.1 213.4C296.4 215.2 296.5 216.9 296.6 219.2C296.7 222.4 296.8 232 296.9 238.5C296.9 239.5 295.6 252.8 295.2 257.5C294.9 263 295 265.8 295.3 269.8L295.4 269.4C296.1 277 299.2 282.3 304.6 285.3C310.4 285.7 313.8 288.7 315 294.5C320.3 303.4 325.3 310.1 330 314.5C330.3 314.8 330.5 315 330.7 315.2C330.9 315.4 331 315.5 331.1 315.6C335.4 317.8 337.7 319.5 338 320.8C334.6 340.5 321.4 351.1 298.4 352.9L297.6 352.8C297 352.7 296.9 352.5 296.6 352.2C295.6 351.1 294.7 348.7 293.8 344.9C293.7 344.8 293.6 344.6 293.5 344.4C293.4 344.2 293.2 343.9 293 343.5C289.8 337.9 284.5 331.5 277.1 324.2C271.8 321.8 269.6 317.7 270.6 312C268.9 306 264.5 301.8 257.3 299.3" stroke="white" stroke-width="1.2257" stroke-linecap="round"/>
<path d="M316.1 349.7C316.6 350.4 317.3 351.5 317.6 351.8C318.1 352.3 319.5 352.9 320.3 353.1C321 353.2 322.7 353.2 323.5 353.1C324.3 353 325.9 352.7 326.6 352.3C327.4 352 328.7 351.1 329.3 350.6C329.9 350.1 330.9 348.8 331.3 348.1C331.7 347.4 332.3 345.8 332.5 345C332.7 344.2 332.7 342.7 332.5 342C332.2 341 330.8 338.8 330.5 338.4" stroke="white" stroke-width="1.2257" stroke-linecap="round"/>
<path d="M272 316.9C287.3 312.3 299.8 303 309.5 289" stroke="white" strokeWidth="1.2257" stroke-linecap="round" stroke-linejoin="round"/>
<path d="M293.3 344.2C313.3 343.5 325.6 333.9 330.1 315.7" stroke="white" strokeWidth="1.2257" stroke-linecap="round" stroke-linejoin="round"/>
<path d="M233.6 190.4C233.9 193.3 232.1 195.5 228.1 197.2C225.1 197.6 223.4 197.5 220.2 194C220 198.4 221.3 202.9 224.3 206.4C229.8 201.5 234.9 197.8 243.4 192C249.7 204 249.7 213.8 243.3 221.6C246.4 221.6 248.7 219.4 250.2 215C251 210.9 253.5 208.7 257.6 208.5C262.4 208.5 265.1 205.6 265.8 199.8L266.1 200C266.4 194 269.4 190.9 275.2 190.6L275.6 190.9C276.3 192.3 279.1 197.8 279.7 199.6C280.3 201.4 281.3 204.8 281.7 206.8C282 208.3 282.4 211.6 282.6 213.3C282.8 215.1 283 218.7 283.1 220.4C283.2 223.4 283.5 230.5 283.5 233C283.5 233.5 282.2 251.3 281.7 258.1C281.6 259.9 281.7 262.1 281.8 263C282 264.4 282.5 266.8 283.3 268.6C283.7 269.5 285.2 272.6 285.9 273.9C286.7 275.4 288.4 278.4 289.4 279.9C290.4 281.4 292.4 284.4 293.5 285.9C295.7 288.8 299.5 293.7 301 295.6C297 300.8 291.3 305.4 283.9 309.4L282.9 312.6C281.4 310.7 277.7 306.1 275.4 303.2C272.6 299.9 268.2 295.1 265.6 292.7C264.4 291.6 262.1 289.6 261.1 288.8C259.7 287.6 257.2 286 255.8 285.3C254.3 284.6 252.7 284.1 251.4 283.8C249.9 283.4 231.8 280.4 226.1 279.6C223.5 279.2 209.6 276.4 207.9 275.9C206.2 275.4 203 274.2 201.4 273.5C199.8 272.8 196.6 270.9 195.1 269.8C193.2 268.5 185.5 261.8 185.3 261.6L185.1 261.1C186.7 255.6 190.4 253.4 196.1 254.5C196.2 254.5 196.2 254.4 196.3 254.4C202 254.9 205.4 252.9 206.5 248.3C207.7 244.4 210.4 242.5 214.6 242.6C219.2 242.2 221.9 240.4 222.6 237.4C213.6 241.7 204 239.4 193.8 230.5C202.6 222.6 210.6 216.2 217.9 211.2C210.5 204 202.6 201.6 194 203.9C193.7 204 193.6 204 193.4 204.1C193.3 204.2 193.2 204.2 193.2 204.2C190 205.7 188.6 208.7 188.9 213.1C189.3 217.9 189.3 220.7 189 221.4C188.4 224.1 187.6 226.3 186.6 228C196.2 224 201.5 218.7 202.5 212.1L202.5 211.7C202.3 209.1 202.3 208.7 202.1 208C202 207.6 201.6 207 201.3 206.7C201 206.4 200.4 206.1 199.9 206C199.1 205.8 197.8 205.8 197.1 206C196.6 206.2 195.3 206.9 194.7 207.4C194.3 207.7 193.8 208.3 193.7 208.6C193.4 209.3 193.5 210.9 193.8 211.8C194 212.5 194.2 213.5 194.3 213.8L194.2 213.7C194.2 216.2 193.8 218.1 193 219.2" stroke="white" stroke-width="1.2257" stroke-linecap="round" stroke-linejoin="round"/>
<path d="M222.099 185C222.299 183.8 223.699 182.4 226.299 180.6C226.399 180.5 226.599 180.3 226.899 179.8C227.199 179.3 227.099 178.9 226.699 178.4C226.499 178.2 226.299 178.1 225.999 178C225.099 177.8 223.899 178.1 222.299 178.8C223.299 178.1 223.799 177.2 223.899 176.2C223.899 176.2 223.899 176.2 223.899 176.1C223.899 176.1 223.899 176 223.899 175.9C224.099 175 223.699 174.4 222.699 174.2C222.599 174.2 222.599 174.2 222.499 174.2C221.699 174.3 220.799 175.3 219.799 177.1C219.999 175.6 219.599 174.7 218.599 174.2C218.599 174.2 218.599 174.2 218.499 174.1C218.399 174.1 218.399 174 218.299 174C217.299 173.5 216.599 174.2 215.999 176.3C215.999 176.4 215.999 176.6 215.999 176.7C215.999 176.9 216.099 177.1 216.199 177.5C216.699 179 217.699 181.4 219.199 184.6C220.699 189.1 222.099 192 223.499 193.2C223.499 193.2 223.499 193.2 223.599 193.3C223.699 193.4 223.799 193.4 223.899 193.5C225.799 194.7 228.099 194.1 230.799 191.7C231.699 189.5 231.299 187.1 229.399 184.3C229.899 185 230.799 185.5 231.999 185.8C232.099 185.8 232.199 185.8 232.499 185.8C232.699 185.8 233.099 185.7 233.499 185.6C234.899 185.2 236.099 184.3 237.099 182.9C237.199 182.8 237.299 182.7 237.299 182.6C238.399 180.6 238.099 178.2 236.499 175.5C234.699 173.6 232.299 173.1 229.199 174C229.799 173.8 230.399 173.4 230.999 172.6C232.799 170.2 232.599 167.6 230.399 164.8L230.299 164.9C228.399 163.4 226.199 162.8 223.899 163.2C223.799 163.2 223.699 163.2 223.599 163.2C221.599 163.6 219.899 165.5 218.599 168.9C218.399 166.8 217.299 165.4 215.499 164.8C215.499 164.8 215.499 164.8 215.399 164.8C215.399 164.8 215.299 164.8 215.199 164.7C213.799 164.2 211.899 164.6 209.499 165.8C209.299 165.9 209.099 166 208.999 166.1C206.999 167.4 206.199 169.7 206.599 172.9C206.599 173 206.599 173.1 206.599 173.2C207.399 176.2 209.199 178.3 211.999 179.6C208.999 179.4 207.299 181 206.699 184.4C206.699 184.5 206.699 184.5 206.699 184.6C206.699 187.4 207.999 189.5 210.399 190.9C210.599 191 210.899 191.1 211.299 191.3C211.699 191.5 212.199 191.6 212.799 191.7C214.999 192.1 216.699 191.4 217.799 189.5V189.6C217.299 195.6 217.899 203.9 221.799 208.3C220.899 209.1 220.599 209.4 219.799 210.2L219.899 210.1C213.099 202.1 204.8 198.1 194 199.5L193.699 199.9C191.399 202.9 188.099 204 183.899 203.4C177.399 202.3 172.899 198.5 170.499 192.1C170.499 192 170.499 192 170.399 191.9V191.8C169.799 189.9 169.399 188 169.399 186.3C169.199 183.3 168.599 181.2 167.399 179.8H167.799C169.699 181.4 171.799 182.5 173.999 183.2C174.099 183.2 174.199 183.3 174.299 183.3C174.399 183.3 174.399 183.3 174.499 183.3C176.299 183.4 178.499 182.8 182.699 182.5C185.999 182.2 187.899 183.6 189.199 184.9C189.299 185 189.399 185.1 189.499 185.2C192.099 188.5 193.199 191.2 193.799 194.2C193.799 195.5 193.899 196.5 193.799 197.3C193.799 197.5 193.799 197.7 193.699 197.8C193.699 197.9 193.599 198 193.599 198C190.499 199.7 187.499 200 184.499 198.9C184.499 198.9 184.399 198.9 184.299 198.9C181.499 198.1 179.599 196.3 178.399 193.6C178.299 193.5 178.299 193.4 178.299 193.3C178.299 193.2 178.299 193.2 178.299 193.2C177.399 190.6 176.399 188.6 175.099 187.2L174.999 187.1C173.099 185.4 172.199 184.6 172.199 184.7" stroke="white" stroke-width="1.2257" stroke-linecap="round" stroke-linejoin="round"/>
</svg>
