
<svg id="_레이어_2" data-name="레이어_2" xmlns="http://www.w3.org/2000/svg" viewBox="0 0 136.3 213.21">
  <path  d="M27.67,29.69c-.61-1.72-1.16-2.76-1.92-4.57-2.54,1.12-3.87,2.64-5.05,4.08-.67-1.49-2.29-3.13-3.67-3.5-.97.99-2.71,4.4-3.36,5.97-1.16-1.31-2.65-3.04-3.19-3.37-6.28,6.19-8.14,13.8-8.95,21.63-.76,7.35,1.51,14.69,4.47,21.46,2.86,6.54,6.41,12.82,11.01,18.28,7.74,9.19,18.42,15.87,30.08,18.81,11.65,2.94,25.55,2.78,36.72-1.65"/>
  <path  d="M98.67,12.89c-2.21-5.05-7.01-8.88-12.43-9.9-1.48-.28-3.4-.12-3.94,1.28-2.04-2.01-5.16-2.65-7.99-2.21-1.37.21-2.74.67-3.81,1.55s-1.8,2.24-1.7,3.63c-1.87-.9-4.3-.41-5.68,1.13s-1.59,4.01-.49,5.77"/>
  <path  d="M134.11,210.17c-3.13-24.68-3.27-25.53-12.78-48.52-8.53-20.61-19.91-40.68-37.15-54.83l-.15-.06c8.12-9.89,12.24-22.73,12.6-35.52.35-12.79-2.91-25.52-8.27-37.13-3.88-8.4-9.49-16.83-18.18-20-2.46-.89-6-.83-6.8,1.66-2.07-1.55-4.25-2.95-6.53-4.16-1.05.91-1.94,2.01-2.59,3.24-1.97-1.7-3.98-3.38-6.31-4.54-1.98-.99-5.8-2.17-8.16-2.27-1.73,1.68-3.46,4.14-5.46,7.35-8.07,12.94-10.25,28.99-7.98,44.07,2.13,14.13,8.26,28.01,19,37.44s26.44,13.69,39.88,8.86l-.6.34c3.19-1.67,5.91-4.11,8.43-6.68,16.57-16.89,26.16-41.11,23.11-64.58-.44-3.34-1.12-6.65-2.18-9.85-1.56-4.7-3.95-9.13-7.01-13.02-.5-.63-1.29-1.32-2.01-.94-.36.19-.54.59-.7.97-.57,1.34-1.13,2.69-1.7,4.03-.79-1.61-2.73-2.57-4.5-2.23s-3.2,1.97-3.32,3.76c-.33-1.03-1.63-1.48-2.68-1.2s-1.85,1.1-2.52,1.95c-1.74,2.21-2.89,4.87-3.32,7.65"/>
</svg>