<?xml version="1.0" encoding="UTF-8"?>
<svg xmlns="http://www.w3.org/2000/svg" viewBox="0 0 306.55 276.13">
  <defs>
    <style>
      .cls-1 {
        fill: none;
        stroke-linejoin: round;
      }

      .cls-1, .cls-2 {
        stroke: #fff;
        stroke-linecap: round;
      }

      .cls-2 {
        fill: #7e7e7f;
        stroke-miterlimit: 10;
      }
    </style>
  </defs>
  <g id="_레이어_3" data-name="레이어_3">
    <rect class="cls-2" x="-19.38" y="-9.95" width="351.26" height="312.81"/>
  </g>
  <g id="light">
    <line class="cls-1" x1="42.62" y1="48.93" x2="106.27" y2="103.99"/>
    <line class="cls-1" x1="95.51" y1="35.72" x2="124.11" y2="85.49"/>
    <line class="cls-1" x1="134.72" y1="7.53" x2="144.96" y2="79.67"/>
    <line class="cls-1" x1="181.81" y1="29.77" x2="171.32" y2="82.4"/>
    <line class="cls-1" x1="222.33" y1="18.54" x2="194.8" y2="83.73"/>
    <line class="cls-1" x1="211.54" y1="101.78" x2="277.82" y2="40.56"/>
    <line class="cls-1" x1="231.14" y1="115.66" x2="304.25" y2="79.98"/>
    <line class="cls-1" x1="235.98" y1="135.7" x2="286.85" y2="127.91"/>
    <line class="cls-1" x1="236.88" y1="157.28" x2="280.25" y2="165.21"/>
    <line class="cls-1" x1="244.68" y1="180.23" x2="269.23" y2="188.55"/>
    <line class="cls-1" x1="235.98" y1="195.16" x2="261.42" y2="211.68"/>
    <line class="cls-1" x1="178.06" y1="236.68" x2="183.57" y2="260.57"/>
    <line class="cls-1" x1="154.72" y1="236.68" x2="153.41" y2="265.19"/>
    <line class="cls-1" x1="132.03" y1="222.2" x2="118.82" y2="263.21"/>
    <line class="cls-1" x1="111.27" y1="215.86" x2="71.69" y2="274.49"/>
    <line class="cls-1" x1="92.39" y1="201.55" x2="51.65" y2="241.66"/>
    <line class="cls-1" x1="82.48" y1="188.55" x2="2.1" y2="230.39"/>
    <line class="cls-1" x1="81.16" y1="163.45" x2="12.23" y2="173.8"/>
    <line class="cls-1" x1="79.62" y1="143.24" x2="17.52" y2="137.46"/>
    <line class="cls-1" x1="81.16" y1="117.2" x2="30.29" y2="95.4"/>
  </g>
</svg>